# xmcd
#
# Track frame offsets:
#	183
#	18833
#	35120
#	59280
#	72488
#	85045
#	95830
#	112890
#	128913
#	141833
#	159838
#	177620
#	188995
#	204913
#
# Disc length: 2965 seconds
#
# Revision: 2
# Processed by: cddbd v1.5.1PL0 Copyright (c) Steve Scherf et al.
# Submitted via: audiograbber 1.83.01
#
DISCID=c20b930e
DTITLE=Nascimento, Milton - Personalidade
DYEAR=1986
DGENRE=Brésil
TTITLE0=Nos bailes da vida
TTITLE1=Certas cancoes
TTITLE2=Para Lennon e McCartney
TTITLE3=Cantiga
TTITLE4=Raca
TTITLE5=Sonho de Moco
TTITLE6=Cacador de Mim
TTITLE7=A noite do meu bem
TTITLE8=Roupanova
TTITLE9=Travessia
TTITLE10=Coracao de estudante
TTITLE11=Solar
TTITLE12=Encontros e despedia
TTITLE13=Cancao da America
EXTD=
EXTT0=
EXTT1=
EXTT2=
EXTT3=
EXTT4=
EXTT5=
EXTT6=
EXTT7=
EXTT8=
EXTT9=
EXTT10=
EXTT11=
EXTT12=
EXTT13=
PLAYORDER=
